<mxfile host="app.diagrams.net" agent="Mozilla/5.0 (Windows NT 10.0; Win64; x64; rv:132.0) Gecko/20100101 Firefox/132.0" version="24.8.3">
  <diagram name="Página-1" id="tOkjpfFqx1KH2aKX1UtX">
    <mxGraphModel grid="1" page="1" gridSize="10" guides="1" tooltips="1" connect="1" arrows="1" fold="1" pageScale="1" pageWidth="827" pageHeight="1169" math="0" shadow="0">
      <root>
        <mxCell id="0" />
        <mxCell id="1" parent="0" />
        <mxCell id="WCus8f61vK8aBUBxSvcU-4" value="" style="html=1;dropTarget=0;whiteSpace=wrap;fillColor=#3399FF;" vertex="1" parent="1">
          <mxGeometry x="220" y="170" width="620" height="1040" as="geometry" />
        </mxCell>
        <mxCell id="WCus8f61vK8aBUBxSvcU-5" value="" style="shape=module;jettyWidth=8;jettyHeight=4;fillColor=#3399FF;" vertex="1" parent="WCus8f61vK8aBUBxSvcU-4">
          <mxGeometry x="1" width="20" height="20" relative="1" as="geometry">
            <mxPoint x="-27" y="7" as="offset" />
          </mxGeometry>
        </mxCell>
        <mxCell id="WCus8f61vK8aBUBxSvcU-6" value="&lt;div&gt;&amp;lt;&amp;lt;Component&amp;gt;&amp;gt;&lt;/div&gt;&lt;div&gt;Frontend&lt;/div&gt;" style="text;html=1;align=center;verticalAlign=middle;whiteSpace=wrap;rounded=0;" vertex="1" parent="1">
          <mxGeometry x="472.5" y="180" width="120" height="30" as="geometry" />
        </mxCell>
        <mxCell id="WCus8f61vK8aBUBxSvcU-7" value="" style="shape=folder;fontStyle=1;tabWidth=80;tabHeight=30;tabPosition=left;html=1;boundedLbl=1;whiteSpace=wrap;strokeColor=#003D7D;fillColor=#99CCFF;" vertex="1" parent="1">
          <mxGeometry x="245" y="230" width="570" height="170" as="geometry" />
        </mxCell>
        <mxCell id="WCus8f61vK8aBUBxSvcU-8" value="&lt;div&gt;Infrastructure and Framework Layer&lt;/div&gt;" style="text;html=1;align=center;verticalAlign=middle;whiteSpace=wrap;rounded=0;" vertex="1" parent="1">
          <mxGeometry x="417.5" y="270" width="230" height="30" as="geometry" />
        </mxCell>
        <mxCell id="WCus8f61vK8aBUBxSvcU-11" value="&lt;div&gt;«Component»&lt;/div&gt;&lt;div&gt;HTTP/S Protocol Stack&lt;br&gt;&lt;/div&gt;" style="html=1;dropTarget=0;whiteSpace=wrap;fillColor=#3399FF;" vertex="1" parent="1">
          <mxGeometry x="620" y="308" width="156" height="60" as="geometry" />
        </mxCell>
        <mxCell id="WCus8f61vK8aBUBxSvcU-12" value="" style="shape=module;jettyWidth=8;jettyHeight=4;fillColor=#3399FF;" vertex="1" parent="WCus8f61vK8aBUBxSvcU-11">
          <mxGeometry x="1" width="20" height="20" relative="1" as="geometry">
            <mxPoint x="-27" y="7" as="offset" />
          </mxGeometry>
        </mxCell>
        <mxCell id="WCus8f61vK8aBUBxSvcU-13" value="«Component»&lt;br&gt;&lt;b&gt;Data Model&lt;/b&gt;" style="html=1;dropTarget=0;whiteSpace=wrap;fillColor=#3399FF;" vertex="1" parent="1">
          <mxGeometry x="440" y="430" width="156" height="60" as="geometry" />
        </mxCell>
        <mxCell id="WCus8f61vK8aBUBxSvcU-14" value="" style="shape=module;jettyWidth=8;jettyHeight=4;fillColor=#3399FF;" vertex="1" parent="WCus8f61vK8aBUBxSvcU-13">
          <mxGeometry x="1" width="20" height="20" relative="1" as="geometry">
            <mxPoint x="-27" y="7" as="offset" />
          </mxGeometry>
        </mxCell>
        <mxCell id="WCus8f61vK8aBUBxSvcU-15" value="" style="ellipse;whiteSpace=wrap;html=1;aspect=fixed;fillColor=#3399FF;" vertex="1" parent="1">
          <mxGeometry x="647.5" y="444" width="30" height="30" as="geometry" />
        </mxCell>
        <mxCell id="WCus8f61vK8aBUBxSvcU-16" value="" style="verticalLabelPosition=bottom;verticalAlign=top;html=1;shape=mxgraph.basic.arc;startAngle=0.8610442353929457;endAngle=0.3587332955960307;" vertex="1" parent="1">
          <mxGeometry x="640" y="436.5" width="45" height="45" as="geometry" />
        </mxCell>
        <mxCell id="WCus8f61vK8aBUBxSvcU-26" value="" style="ellipse;whiteSpace=wrap;html=1;aspect=fixed;fillColor=#3399FF;" vertex="1" parent="1">
          <mxGeometry x="323.25" y="451.5" width="30" height="30" as="geometry" />
        </mxCell>
        <mxCell id="WCus8f61vK8aBUBxSvcU-27" value="" style="verticalLabelPosition=bottom;verticalAlign=top;html=1;shape=mxgraph.basic.arc;startAngle=0.6978387966043179;endAngle=0.3068042989188683;" vertex="1" parent="1">
          <mxGeometry x="315.75" y="444" width="45" height="45" as="geometry" />
        </mxCell>
        <mxCell id="WCus8f61vK8aBUBxSvcU-28" value="" style="shape=folder;fontStyle=1;tabWidth=80;tabHeight=30;tabPosition=left;html=1;boundedLbl=1;whiteSpace=wrap;fillColor=#99FF33;" vertex="1" parent="1">
          <mxGeometry x="245" y="510" width="575" height="170" as="geometry" />
        </mxCell>
        <mxCell id="WCus8f61vK8aBUBxSvcU-29" value="&lt;div&gt;Adapters Layer&lt;/div&gt;" style="text;html=1;align=center;verticalAlign=middle;whiteSpace=wrap;rounded=0;" vertex="1" parent="1">
          <mxGeometry x="457.5" y="555" width="150" height="30" as="geometry" />
        </mxCell>
        <mxCell id="WCus8f61vK8aBUBxSvcU-30" value="&lt;div&gt;«Component»&lt;b&gt;&lt;br&gt;&lt;/b&gt;&lt;/div&gt;&lt;div&gt;&lt;b&gt;Component&lt;/b&gt;&lt;/div&gt;" style="html=1;dropTarget=0;whiteSpace=wrap;fillColor=#3399FF;" vertex="1" parent="1">
          <mxGeometry x="280" y="590" width="156" height="60" as="geometry" />
        </mxCell>
        <mxCell id="WCus8f61vK8aBUBxSvcU-31" value="" style="shape=module;jettyWidth=8;jettyHeight=4;fillColor=#3399FF;" vertex="1" parent="WCus8f61vK8aBUBxSvcU-30">
          <mxGeometry x="1" width="20" height="20" relative="1" as="geometry">
            <mxPoint x="-27" y="7" as="offset" />
          </mxGeometry>
        </mxCell>
        <mxCell id="WCus8f61vK8aBUBxSvcU-32" value="&lt;div&gt;«Component&lt;b&gt;&amp;gt;&lt;/b&gt;&lt;/div&gt;HTTP/S Adapter" style="html=1;dropTarget=0;whiteSpace=wrap;fillColor=#3399FF;" vertex="1" parent="1">
          <mxGeometry x="620" y="589" width="156" height="60" as="geometry" />
        </mxCell>
        <mxCell id="WCus8f61vK8aBUBxSvcU-33" value="" style="shape=module;jettyWidth=8;jettyHeight=4;fillColor=#3399FF;" vertex="1" parent="WCus8f61vK8aBUBxSvcU-32">
          <mxGeometry x="1" width="20" height="20" relative="1" as="geometry">
            <mxPoint x="-27" y="7" as="offset" />
          </mxGeometry>
        </mxCell>
        <mxCell id="WCus8f61vK8aBUBxSvcU-34" value="" style="shape=folder;fontStyle=1;tabWidth=80;tabHeight=30;tabPosition=left;html=1;boundedLbl=1;whiteSpace=wrap;fillColor=#FF6666;" vertex="1" parent="1">
          <mxGeometry x="245" y="815" width="575" height="150" as="geometry" />
        </mxCell>
        <mxCell id="WCus8f61vK8aBUBxSvcU-36" value="&lt;div&gt;Services Layer&lt;/div&gt;" style="text;html=1;align=center;verticalAlign=middle;whiteSpace=wrap;rounded=0;" vertex="1" parent="1">
          <mxGeometry x="462.5" y="855" width="140" height="30" as="geometry" />
        </mxCell>
        <mxCell id="WCus8f61vK8aBUBxSvcU-37" value="&lt;div&gt;«Component»&lt;/div&gt;&lt;div&gt;Service&lt;br&gt;&lt;/div&gt;" style="html=1;dropTarget=0;whiteSpace=wrap;fillColor=#3399FF;" vertex="1" parent="1">
          <mxGeometry x="280" y="885" width="156" height="60" as="geometry" />
        </mxCell>
        <mxCell id="WCus8f61vK8aBUBxSvcU-38" value="" style="shape=module;jettyWidth=8;jettyHeight=4;fillColor=#3399FF;" vertex="1" parent="WCus8f61vK8aBUBxSvcU-37">
          <mxGeometry x="1" width="20" height="20" relative="1" as="geometry">
            <mxPoint x="-27" y="7" as="offset" />
          </mxGeometry>
        </mxCell>
        <mxCell id="WCus8f61vK8aBUBxSvcU-39" value="" style="shape=folder;fontStyle=1;tabWidth=80;tabHeight=30;tabPosition=left;html=1;boundedLbl=1;whiteSpace=wrap;fillColor=#FF9933;" vertex="1" parent="1">
          <mxGeometry x="245" y="1040" width="575" height="150" as="geometry" />
        </mxCell>
        <mxCell id="WCus8f61vK8aBUBxSvcU-40" value="&lt;div&gt;«Component»&lt;/div&gt;Data Model" style="html=1;dropTarget=0;whiteSpace=wrap;fillColor=#3399FF;" vertex="1" parent="1">
          <mxGeometry x="280" y="1110" width="156" height="60" as="geometry" />
        </mxCell>
        <mxCell id="WCus8f61vK8aBUBxSvcU-41" value="" style="shape=module;jettyWidth=8;jettyHeight=4;fillColor=#3399FF;" vertex="1" parent="WCus8f61vK8aBUBxSvcU-40">
          <mxGeometry x="1" width="20" height="20" relative="1" as="geometry">
            <mxPoint x="-27" y="7" as="offset" />
          </mxGeometry>
        </mxCell>
        <mxCell id="WCus8f61vK8aBUBxSvcU-42" value="Enterprise Business Layer" style="text;html=1;align=center;verticalAlign=middle;whiteSpace=wrap;rounded=0;" vertex="1" parent="1">
          <mxGeometry x="440" y="1080" width="162.5" height="30" as="geometry" />
        </mxCell>
        <mxCell id="WCus8f61vK8aBUBxSvcU-43" value="" style="ellipse;whiteSpace=wrap;html=1;aspect=fixed;fillColor=#3399FF;" vertex="1" parent="1">
          <mxGeometry x="457.5" y="1002.5" width="30" height="30" as="geometry" />
        </mxCell>
        <mxCell id="WCus8f61vK8aBUBxSvcU-44" value="" style="verticalLabelPosition=bottom;verticalAlign=top;html=1;shape=mxgraph.basic.arc;startAngle=0.7050773360672706;endAngle=0.29147615882815986;" vertex="1" parent="1">
          <mxGeometry x="450" y="995" width="45" height="45" as="geometry" />
        </mxCell>
        <mxCell id="WCus8f61vK8aBUBxSvcU-46" value="" style="endArrow=none;html=1;rounded=0;exitX=0.553;exitY=0.015;exitDx=0;exitDy=0;exitPerimeter=0;entryX=0.5;entryY=1;entryDx=0;entryDy=0;" edge="1" parent="1" source="WCus8f61vK8aBUBxSvcU-40" target="WCus8f61vK8aBUBxSvcU-43">
          <mxGeometry width="50" height="50" relative="1" as="geometry">
            <mxPoint x="370" y="1070" as="sourcePoint" />
            <mxPoint x="420" y="1020" as="targetPoint" />
          </mxGeometry>
        </mxCell>
        <mxCell id="WCus8f61vK8aBUBxSvcU-47" value="" style="endArrow=none;html=1;rounded=0;entryX=0.5;entryY=1;entryDx=0;entryDy=0;exitX=0.222;exitY=0.111;exitDx=0;exitDy=0;exitPerimeter=0;" edge="1" parent="1" source="WCus8f61vK8aBUBxSvcU-108" target="WCus8f61vK8aBUBxSvcU-37">
          <mxGeometry width="50" height="50" relative="1" as="geometry">
            <mxPoint x="540" y="1090" as="sourcePoint" />
            <mxPoint x="590" y="1040" as="targetPoint" />
            <Array as="points" />
          </mxGeometry>
        </mxCell>
        <mxCell id="WCus8f61vK8aBUBxSvcU-48" value="" style="endArrow=none;html=1;rounded=0;exitX=0.915;exitY=0.315;exitDx=0;exitDy=0;exitPerimeter=0;entryX=0.5;entryY=1;entryDx=0;entryDy=0;" edge="1" parent="1" source="WCus8f61vK8aBUBxSvcU-106" target="WCus8f61vK8aBUBxSvcU-32">
          <mxGeometry width="50" height="50" relative="1" as="geometry">
            <mxPoint x="590" y="909" as="sourcePoint" />
            <mxPoint x="640" y="859" as="targetPoint" />
            <Array as="points" />
          </mxGeometry>
        </mxCell>
        <mxCell id="WCus8f61vK8aBUBxSvcU-49" value="" style="endArrow=none;html=1;rounded=0;entryX=0.5;entryY=1;entryDx=0;entryDy=0;exitX=0.628;exitY=0;exitDx=0;exitDy=0;exitPerimeter=0;" edge="1" parent="1" source="WCus8f61vK8aBUBxSvcU-98" target="WCus8f61vK8aBUBxSvcU-15">
          <mxGeometry width="50" height="50" relative="1" as="geometry">
            <mxPoint x="590" y="759" as="sourcePoint" />
            <mxPoint x="640" y="709" as="targetPoint" />
          </mxGeometry>
        </mxCell>
        <mxCell id="WCus8f61vK8aBUBxSvcU-53" value="" style="endArrow=none;html=1;rounded=0;exitX=1;exitY=0.5;exitDx=0;exitDy=0;entryX=0;entryY=0.5;entryDx=0;entryDy=0;" edge="1" parent="1" source="WCus8f61vK8aBUBxSvcU-96" target="WCus8f61vK8aBUBxSvcU-15">
          <mxGeometry width="50" height="50" relative="1" as="geometry">
            <mxPoint x="540" y="760" as="sourcePoint" />
            <mxPoint x="590" y="710" as="targetPoint" />
          </mxGeometry>
        </mxCell>
        <mxCell id="WCus8f61vK8aBUBxSvcU-55" value="" style="endArrow=none;html=1;rounded=0;entryX=0.25;entryY=1;entryDx=0;entryDy=0;" edge="1" parent="1" target="WCus8f61vK8aBUBxSvcU-11">
          <mxGeometry width="50" height="50" relative="1" as="geometry">
            <mxPoint x="659" y="437" as="sourcePoint" />
            <mxPoint x="710" y="639" as="targetPoint" />
          </mxGeometry>
        </mxCell>
        <mxCell id="WCus8f61vK8aBUBxSvcU-57" value="" style="endArrow=none;html=1;rounded=0;entryX=0.5;entryY=1;entryDx=0;entryDy=0;exitX=0.5;exitY=0;exitDx=0;exitDy=0;" edge="1" parent="1" source="WCus8f61vK8aBUBxSvcU-97" target="WCus8f61vK8aBUBxSvcU-26">
          <mxGeometry width="50" height="50" relative="1" as="geometry">
            <mxPoint x="320" y="530" as="sourcePoint" />
            <mxPoint x="370" y="480" as="targetPoint" />
          </mxGeometry>
        </mxCell>
        <mxCell id="WCus8f61vK8aBUBxSvcU-58" value="" style="ellipse;whiteSpace=wrap;html=1;aspect=fixed;fillColor=#3399FF;" vertex="1" parent="1">
          <mxGeometry x="341.75" y="736.5" width="30" height="30" as="geometry" />
        </mxCell>
        <mxCell id="WCus8f61vK8aBUBxSvcU-59" value="" style="verticalLabelPosition=bottom;verticalAlign=top;html=1;shape=mxgraph.basic.arc;startAngle=0.7036132104611288;endAngle=0.3194913707725001;" vertex="1" parent="1">
          <mxGeometry x="334.25" y="729" width="45" height="45" as="geometry" />
        </mxCell>
        <mxCell id="WCus8f61vK8aBUBxSvcU-67" value="" style="endArrow=none;html=1;rounded=0;entryX=0.5;entryY=1;entryDx=0;entryDy=0;exitX=0.149;exitY=-0.008;exitDx=0;exitDy=0;exitPerimeter=0;" edge="1" parent="1" target="WCus8f61vK8aBUBxSvcU-58">
          <mxGeometry width="50" height="50" relative="1" as="geometry">
            <mxPoint x="357.4939999999999" y="883.52" as="sourcePoint" />
            <mxPoint x="356.75" y="781.5" as="targetPoint" />
          </mxGeometry>
        </mxCell>
        <mxCell id="WCus8f61vK8aBUBxSvcU-68" value="" style="endArrow=none;html=1;rounded=0;exitX=0.489;exitY=0.003;exitDx=0;exitDy=0;exitPerimeter=0;" edge="1" parent="1" source="WCus8f61vK8aBUBxSvcU-104">
          <mxGeometry width="50" height="50" relative="1" as="geometry">
            <mxPoint x="364.25" y="727" as="sourcePoint" />
            <mxPoint x="355.25" y="648" as="targetPoint" />
          </mxGeometry>
        </mxCell>
        <mxCell id="WCus8f61vK8aBUBxSvcU-76" value="&lt;div&gt;Model API&lt;/div&gt;" style="text;html=1;align=center;verticalAlign=middle;whiteSpace=wrap;rounded=0;fillColor=#3399FF;" vertex="1" parent="1">
          <mxGeometry x="442.5" y="1040" width="60" height="20" as="geometry" />
        </mxCell>
        <mxCell id="WCus8f61vK8aBUBxSvcU-79" value="Service API" style="text;html=1;align=center;verticalAlign=middle;whiteSpace=wrap;rounded=0;fillColor=#3399FF;" vertex="1" parent="1">
          <mxGeometry x="314.25" y="769" width="87.5" height="25" as="geometry" />
        </mxCell>
        <mxCell id="WCus8f61vK8aBUBxSvcU-82" value="&lt;div&gt;Adapter API&lt;br&gt;&lt;/div&gt;" style="text;html=1;align=center;verticalAlign=middle;whiteSpace=wrap;rounded=0;fillColor=#3399FF;" vertex="1" parent="1">
          <mxGeometry x="620" y="481.5" width="80" height="17.5" as="geometry" />
        </mxCell>
        <mxCell id="WCus8f61vK8aBUBxSvcU-85" value="Component API" style="text;html=1;align=center;verticalAlign=middle;whiteSpace=wrap;rounded=0;fillColor=#3399FF;" vertex="1" parent="1">
          <mxGeometry x="302" y="494" width="91.5" height="10" as="geometry" />
        </mxCell>
        <mxCell id="WCus8f61vK8aBUBxSvcU-94" value="" style="rounded=0;whiteSpace=wrap;html=1;fillColor=#3399FF;" vertex="1" parent="1">
          <mxGeometry x="650.25" y="359" width="19.5" height="20" as="geometry" />
        </mxCell>
        <mxCell id="WCus8f61vK8aBUBxSvcU-97" value="" style="rounded=0;whiteSpace=wrap;html=1;fillColor=#3399FF;" vertex="1" parent="1">
          <mxGeometry x="328.75" y="575" width="19.5" height="20" as="geometry" />
        </mxCell>
        <mxCell id="WCus8f61vK8aBUBxSvcU-99" value="" style="endArrow=none;html=1;rounded=0;entryX=0.5;entryY=1;entryDx=0;entryDy=0;exitX=0.25;exitY=0;exitDx=0;exitDy=0;" edge="1" parent="1" source="WCus8f61vK8aBUBxSvcU-32" target="WCus8f61vK8aBUBxSvcU-98">
          <mxGeometry width="50" height="50" relative="1" as="geometry">
            <mxPoint x="659" y="589" as="sourcePoint" />
            <mxPoint x="663" y="474" as="targetPoint" />
          </mxGeometry>
        </mxCell>
        <mxCell id="WCus8f61vK8aBUBxSvcU-98" value="" style="rounded=0;whiteSpace=wrap;html=1;fillColor=#3399FF;" vertex="1" parent="1">
          <mxGeometry x="650.25" y="584" width="19.5" height="20" as="geometry" />
        </mxCell>
        <mxCell id="WCus8f61vK8aBUBxSvcU-101" value="" style="rounded=0;whiteSpace=wrap;html=1;fillColor=#3399FF;" vertex="1" parent="1">
          <mxGeometry x="348.25" y="876.5" width="19.5" height="20" as="geometry" />
        </mxCell>
        <mxCell id="WCus8f61vK8aBUBxSvcU-103" value="" style="rounded=0;whiteSpace=wrap;html=1;fillColor=#3399FF;" vertex="1" parent="1">
          <mxGeometry x="355" y="1100" width="19.5" height="20" as="geometry" />
        </mxCell>
        <mxCell id="WCus8f61vK8aBUBxSvcU-105" value="" style="endArrow=none;html=1;rounded=0;exitX=0.489;exitY=0.003;exitDx=0;exitDy=0;exitPerimeter=0;" edge="1" parent="1" source="WCus8f61vK8aBUBxSvcU-59" target="WCus8f61vK8aBUBxSvcU-104">
          <mxGeometry width="50" height="50" relative="1" as="geometry">
            <mxPoint x="356.25" y="729" as="sourcePoint" />
            <mxPoint x="355.25" y="648" as="targetPoint" />
          </mxGeometry>
        </mxCell>
        <mxCell id="WCus8f61vK8aBUBxSvcU-104" value="" style="rounded=0;whiteSpace=wrap;html=1;fillColor=#3399FF;" vertex="1" parent="1">
          <mxGeometry x="347" y="639" width="19.5" height="20" as="geometry" />
        </mxCell>
        <mxCell id="WCus8f61vK8aBUBxSvcU-107" value="" style="endArrow=none;html=1;rounded=0;exitX=0.915;exitY=0.315;exitDx=0;exitDy=0;exitPerimeter=0;entryX=0.5;entryY=1;entryDx=0;entryDy=0;" edge="1" parent="1" source="WCus8f61vK8aBUBxSvcU-44" target="WCus8f61vK8aBUBxSvcU-106">
          <mxGeometry width="50" height="50" relative="1" as="geometry">
            <mxPoint x="491" y="1009" as="sourcePoint" />
            <mxPoint x="648" y="650" as="targetPoint" />
            <Array as="points">
              <mxPoint x="640" y="970" />
            </Array>
          </mxGeometry>
        </mxCell>
        <mxCell id="WCus8f61vK8aBUBxSvcU-106" value="" style="rounded=0;whiteSpace=wrap;html=1;fillColor=#3399FF;" vertex="1" parent="1">
          <mxGeometry x="688.25" y="639" width="19.5" height="20" as="geometry" />
        </mxCell>
        <mxCell id="WCus8f61vK8aBUBxSvcU-109" value="" style="endArrow=none;html=1;rounded=0;entryX=0.5;entryY=1;entryDx=0;entryDy=0;exitX=0.222;exitY=0.111;exitDx=0;exitDy=0;exitPerimeter=0;" edge="1" parent="1" source="WCus8f61vK8aBUBxSvcU-44" target="WCus8f61vK8aBUBxSvcU-108">
          <mxGeometry width="50" height="50" relative="1" as="geometry">
            <mxPoint x="460" y="1000" as="sourcePoint" />
            <mxPoint x="358" y="945" as="targetPoint" />
            <Array as="points">
              <mxPoint x="358" y="990" />
            </Array>
          </mxGeometry>
        </mxCell>
        <mxCell id="WCus8f61vK8aBUBxSvcU-108" value="" style="rounded=0;whiteSpace=wrap;html=1;fillColor=#3399FF;" vertex="1" parent="1">
          <mxGeometry x="347.5" y="935" width="19.5" height="20" as="geometry" />
        </mxCell>
        <mxCell id="WCus8f61vK8aBUBxSvcU-110" value="" style="endArrow=none;html=1;rounded=0;entryX=0.75;entryY=1;entryDx=0;entryDy=0;" edge="1" parent="1" target="WCus8f61vK8aBUBxSvcU-30">
          <mxGeometry width="50" height="50" relative="1" as="geometry">
            <mxPoint x="401.25" y="650" as="sourcePoint" />
            <mxPoint x="440" y="680" as="targetPoint" />
          </mxGeometry>
        </mxCell>
        <mxCell id="AcSgq7QVAo9qdRIXxmkp-6" value="" style="endArrow=none;html=1;rounded=0;exitX=1;exitY=0.5;exitDx=0;exitDy=0;entryX=0;entryY=0.5;entryDx=0;entryDy=0;" edge="1" parent="1" source="WCus8f61vK8aBUBxSvcU-13" target="WCus8f61vK8aBUBxSvcU-96">
          <mxGeometry width="50" height="50" relative="1" as="geometry">
            <mxPoint x="546" y="460" as="sourcePoint" />
            <mxPoint x="648" y="459" as="targetPoint" />
          </mxGeometry>
        </mxCell>
        <mxCell id="WCus8f61vK8aBUBxSvcU-96" value="" style="rounded=0;whiteSpace=wrap;html=1;fillColor=#3399FF;" vertex="1" parent="1">
          <mxGeometry x="588" y="449" width="19.5" height="20" as="geometry" />
        </mxCell>
        <mxCell id="AcSgq7QVAo9qdRIXxmkp-7" value="&lt;div&gt;«Component»&lt;/div&gt;&lt;div&gt;&lt;b&gt;View&lt;/b&gt;&lt;/div&gt;" style="html=1;dropTarget=0;whiteSpace=wrap;fillColor=#3399FF;strokeColor=#000000;" vertex="1" parent="1">
          <mxGeometry x="260" y="308" width="150" height="59" as="geometry" />
        </mxCell>
        <mxCell id="AcSgq7QVAo9qdRIXxmkp-8" value="" style="shape=module;jettyWidth=8;jettyHeight=4;fillColor=#3399FF;" vertex="1" parent="AcSgq7QVAo9qdRIXxmkp-7">
          <mxGeometry x="1" width="20" height="20" relative="1" as="geometry">
            <mxPoint x="-27" y="7" as="offset" />
          </mxGeometry>
        </mxCell>
        <mxCell id="AcSgq7QVAo9qdRIXxmkp-9" value="" style="ellipse;whiteSpace=wrap;html=1;aspect=fixed;fillColor=#3399FF;" vertex="1" parent="1">
          <mxGeometry x="320" y="102.5" width="30" height="30" as="geometry" />
        </mxCell>
        <mxCell id="AcSgq7QVAo9qdRIXxmkp-10" value="" style="verticalLabelPosition=bottom;verticalAlign=top;html=1;shape=mxgraph.basic.arc;startAngle=0.19783879660431794;endAngle=0.8091827322717466;" vertex="1" parent="1">
          <mxGeometry x="312.5" y="95" width="45" height="45" as="geometry" />
        </mxCell>
        <mxCell id="AcSgq7QVAo9qdRIXxmkp-11" value="Google Cloud AUTH API" style="text;html=1;align=center;verticalAlign=middle;whiteSpace=wrap;rounded=0;" vertex="1" parent="1">
          <mxGeometry x="302" y="65" width="72.5" height="30" as="geometry" />
        </mxCell>
        <mxCell id="AcSgq7QVAo9qdRIXxmkp-12" value="" style="rounded=0;whiteSpace=wrap;html=1;fillColor=#3399FF;" vertex="1" parent="1">
          <mxGeometry x="325" y="299" width="19.5" height="20" as="geometry" />
        </mxCell>
        <mxCell id="AcSgq7QVAo9qdRIXxmkp-13" value="" style="endArrow=none;html=1;rounded=0;entryX=0.493;entryY=1.016;entryDx=0;entryDy=0;exitX=0.5;exitY=0;exitDx=0;exitDy=0;entryPerimeter=0;" edge="1" parent="1" source="AcSgq7QVAo9qdRIXxmkp-12" target="AcSgq7QVAo9qdRIXxmkp-10">
          <mxGeometry width="50" height="50" relative="1" as="geometry">
            <mxPoint x="339.75" y="299" as="sourcePoint" />
            <mxPoint x="389.75" y="249" as="targetPoint" />
          </mxGeometry>
        </mxCell>
        <mxCell id="AcSgq7QVAo9qdRIXxmkp-16" value="" style="rounded=0;whiteSpace=wrap;html=1;fillColor=#3399FF;" vertex="1" parent="1">
          <mxGeometry x="328.75" y="359" width="19.5" height="20" as="geometry" />
        </mxCell>
        <mxCell id="AcSgq7QVAo9qdRIXxmkp-17" value="" style="endArrow=none;html=1;rounded=0;entryX=0.5;entryY=1;entryDx=0;entryDy=0;exitX=0.503;exitY=-0.02;exitDx=0;exitDy=0;exitPerimeter=0;" edge="1" parent="1" source="WCus8f61vK8aBUBxSvcU-27" target="AcSgq7QVAo9qdRIXxmkp-16">
          <mxGeometry width="50" height="50" relative="1" as="geometry">
            <mxPoint x="490" y="430" as="sourcePoint" />
            <mxPoint x="540" y="380" as="targetPoint" />
          </mxGeometry>
        </mxCell>
      </root>
    </mxGraphModel>
  </diagram>
</mxfile>
